<?xml version="1.0" encoding="utf-8"?>
<!-- Generator: Adobe Illustrator 19.1.0, SVG Export Plug-In . SVG Version: 6.00 Build 0)  -->
<svg version="1.1" id="Layer_1" xmlns="http://www.w3.org/2000/svg" xmlns:xlink="http://www.w3.org/1999/xlink" x="0px" y="0px"
	 viewBox="-165 65.1 307.1 350.9" style="enable-background:new -165 65.1 307.1 350.9;" xml:space="preserve">
<style type="text/css">
	.st0{fill:#F1BC80;}
	.st1{fill:#EB942A;}
</style>
<path d="M69.9,175.5l-29.7-29.7c-6.5-6.4-19.2-11.7-28.4-11.7H-88c-9.2,0-16.6,7.5-16.6,16.6v179.7c0,9.2,7.5,16.6,16.6,16.6H65
	c9.2,0,16.6-7.5,16.6-16.6V203.9C81.7,194.8,76.4,182,69.9,175.5z"/>
<path class="st0" d="M60.5,185c0.7,0.7,1.3,1.5,1.9,2.4h-34v-34c0.9,0.6,1.7,1.3,2.4,1.9L60.5,185z"/>
<path class="st1" d="M68.3,330.4c0,1.8-1.5,3.3-3.3,3.3H-88c-1.8,0-3.3-1.5-3.3-3.3V150.7c0-1.8,1.5-3.3,3.3-3.3h99.8
	c1,0,2.1,0.1,3.3,0.4v52.8H68c0.2,1.2,0.4,2.3,0.4,3.3V330.4z"/>
<g id="camera.svg">
	<path d="M-35.2,272.3c0,13.1,10.6,23.7,23.7,23.7s23.7-10.6,23.7-23.7c0-13-10.6-23.7-23.7-23.7S-35.2,259.3-35.2,272.3z
		 M39.5,232.3H14c-1.8-7.3-3.6-14.6-10.9-14.6H-26c-7.3,0-9.1,7.3-10.9,14.6h-25.5c-4,0-7.3,3.3-7.3,7.3v65.6c0,4,3.3,7.3,7.3,7.3
		H39.6c4,0,7.3-3.3,7.3-7.3v-65.6C46.8,235.5,43.5,232.3,39.5,232.3z M-11.5,304.7c-17.8,0-32.3-14.5-32.3-32.3S-29.3,240-11.5,240
		s32.3,14.5,32.3,32.3C20.8,290.2,6.4,304.7-11.5,304.7z M39.5,254.1H25v-7.3h14.6V254.1z"/>
</g>
</svg>
