<?xml version="1.0" encoding="utf-8"?>
<!-- Generator: Adobe Illustrator 19.1.0, SVG Export Plug-In . SVG Version: 6.00 Build 0)  -->
<svg version="1.1" id="Layer_1" xmlns="http://www.w3.org/2000/svg" xmlns:xlink="http://www.w3.org/1999/xlink" x="0px" y="0px"
	 viewBox="-165 65.1 307.1 350.9" style="enable-background:new -165 65.1 307.1 350.9;" xml:space="preserve">
<style type="text/css">
	.st0{fill:#AF1515;}
</style>
<g id="camera.svg">
	<path d="M-35.2,240.5c0,13.1,10.6,23.7,23.7,23.7s23.7-10.6,23.7-23.7c0-13-10.6-23.7-23.7-23.7S-35.2,227.5-35.2,240.5z
		 M39.5,200.6H14c-1.8-7.3-3.6-14.6-10.9-14.6H-26c-7.3,0-9.1,7.3-10.9,14.6h-25.5c-4,0-7.3,3.3-7.3,7.3v65.6c0,4,3.3,7.3,7.3,7.3
		h102c4,0,7.3-3.3,7.3-7.3v-65.6C46.8,203.8,43.5,200.6,39.5,200.6z M-11.5,273c-17.8,0-32.3-14.5-32.3-32.3s14.5-32.4,32.3-32.4
		s32.3,14.5,32.3,32.3C20.8,258.5,6.4,273-11.5,273z M39.5,222.4H25v-7.3h14.6L39.5,222.4L39.5,222.4z"/>
</g>
<path class="st0" d="M-11.5,146c-52.1,0-94.5,42.4-94.5,94.6c0,52.1,42.4,94.5,94.5,94.5s94.5-42.4,94.5-94.5
	C83.1,188.4,40.7,146-11.5,146z M-88,240.6c0-22.2,9.5-42.3,24.7-56.3l89.1,123.1c-11,6.2-23.8,9.7-37.3,9.7
	C-53.7,317.1-88,282.8-88,240.6z M40.4,296.8l-89.1-123.1c11-6.2,23.8-9.7,37.3-9.7c42.2,0,76.5,34.3,76.5,76.6
	C65.1,262.8,55.6,282.8,40.4,296.8z"/>
</svg>
